<svg width="143" height="24" viewBox="0 0 491 77" fill="current-color" xmlns="http://www.w3.org/2000/svg">
  <path fill-rule="evenodd" clip-rule="evenodd" d="M11.6301 22.7145L48.7396 5.01411L66.44 42.1237L23.2476 77.0013L16.5602 45.7522L24.6257 40.0987L25.5885 52.4389L52.5403 31.6177L32.2969 36.4441L31.4872 26.0656L14.3135 35.2536L11.6301 22.7145Z" />
  <path d="M466.195 54.887V21.3507H462.316V7.9182H466.195V2.0977L481.892 0V7.9182H490.913V21.3507H481.892V41.2742H489.56V54.887H466.195Z" />
  <path d="M431.219 7.9182H454.855V21.7113H446.916V54.887H431.219V7.9182Z" />
  <path d="M372.726 31.4477C372.726 16.5727 382.559 6.47577 395.64 6.47577C401.684 6.47577 406.285 8.54924 408.901 11.975H409.262C409.172 11.5242 409.081 10.8932 409.081 9.45075V7.91818H423.425V54.887H409.081V53.1741C409.081 51.912 409.172 51.0105 409.262 50.3794H408.901C406.014 54.1658 401.053 56.3294 394.918 56.3294C382.018 56.3294 372.726 46.2325 372.726 31.4477ZM398.436 42.5363C404.3 42.5363 408.54 38.0287 408.54 31.1772C408.54 24.506 404.3 20.0886 398.436 20.0886C392.663 20.0886 388.513 24.506 388.513 31.1772C388.513 38.0287 392.663 42.5363 398.436 42.5363Z" />
  <path d="M346.025 54.887V21.3507H342.146V7.9182H346.025V2.0977L361.722 0V7.9182H370.743V21.3507H361.722V41.2742H369.39V54.887H346.025Z" />
  <path d="M318.494 20.2689C318.494 21.7113 319.577 22.4325 323.005 24.2356L328.869 27.3909C333.74 30.0052 338.612 33.2507 338.612 41.2741C338.612 50.109 332.026 56.3294 320.659 56.3294C309.744 56.3294 304.511 50.5597 302.617 44.6999L313.172 38.6598C313.803 40.6431 316.51 44.2491 320.659 44.2491C322.464 44.2491 323.636 43.2575 323.636 41.7249C323.636 40.5529 322.915 39.6514 320.479 38.3893L314.976 35.234C309.744 32.3492 304.511 29.4643 304.511 20.8098C304.511 13.2371 311.458 6.47577 320.84 6.47577C330.583 6.47577 335.635 11.1636 338.521 16.4826L328.598 22.7931C327.155 20.3591 324.268 17.8348 321.201 17.8348C319.577 17.8348 318.494 18.8265 318.494 20.2689Z" />
  <path d="M300.953 31.8444C300.953 46.6293 291.301 56.7262 278.13 56.7262C272.717 56.7262 268.116 55.0133 265.951 52.2186H265.59C265.68 52.5792 265.77 53.2103 265.77 55.7345V77.0014L250.254 74.644V8.31498H264.598V10.2082C264.598 11.29 264.507 12.1013 264.417 12.7324H264.868C267.845 9.03619 272.807 6.87256 278.851 6.87256C291.661 6.87256 300.953 16.9695 300.953 31.8444ZM275.243 20.4854C269.379 20.4854 265.229 24.9028 265.229 31.6641C265.229 38.5156 269.379 42.9331 275.243 42.9331C281.107 42.9331 285.256 38.5156 285.256 31.6641C285.256 24.9028 281.107 20.4854 275.243 20.4854Z" />
  <path d="M242.99 25.0469V54.887H227.293V25.4977C227.293 22.2522 225.038 20.0886 222.241 20.0886C219.264 20.0886 217.099 22.2522 217.099 25.4977V54.887H201.402V25.4977C201.402 22.2522 199.147 20.0886 196.26 20.0886C193.373 20.0886 191.118 22.2522 191.118 25.4977V54.887H175.421V25.0469C175.421 14.0485 184.622 6.47577 196.079 6.47577C201.763 6.47577 206.274 8.45909 209.521 11.8848C212.859 8.45909 217.55 6.47577 223.234 6.47577C234.691 6.47577 242.99 14.0485 242.99 25.0469Z" />
  <path d="M168.197 54.887H126.338V7.9182H142.035V41.2742H152.5V7.9182H168.197V54.887Z" />
  <path d="M72.9873 64.0777L84.9856 56.3247C86.7899 60.5618 89.9473 62.8156 94.2776 62.8156C100.051 62.8156 103.66 59.0293 103.66 53.1694V21.7067H78.7609V7.91351H119.357V51.727C119.357 67.1429 109.524 76.9694 94.2776 76.9694C83.452 76.9694 76.8665 72.1012 72.9873 64.0777Z" />
</svg>
